<mxfile host="app.diagrams.net" modified="2021-11-12T03:21:24.611Z" agent="5.0 (Macintosh; Intel Mac OS X 10_15_7) AppleWebKit/537.36 (KHTML, like Gecko) Chrome/95.0.4638.69 Safari/537.36" etag="6zHe6qUS9ytB-yzgcizt" version="15.7.0" type="github">
  <diagram id="Qk1jUZTmZc205LBS2I_3" name="Page-1">
    <mxGraphModel dx="1298" dy="684" grid="1" gridSize="10" guides="1" tooltips="1" connect="1" arrows="1" fold="1" page="1" pageScale="1" pageWidth="827" pageHeight="1169" math="0" shadow="0">
      <root>
        <mxCell id="0" />
        <mxCell id="1" parent="0" />
        <mxCell id="z61JgNj33qLIhOlScUbN-1" value="&lt;b style=&quot;font-size: 16px;&quot;&gt;迁移项目&lt;/b&gt;" style="rounded=1;whiteSpace=wrap;html=1;fillColor=#99CCFF;fontSize=16;fontColor=#FFFFFF;" vertex="1" parent="1">
          <mxGeometry x="60" y="160" width="120" height="60" as="geometry" />
        </mxCell>
        <mxCell id="z61JgNj33qLIhOlScUbN-2" value="" style="endArrow=classic;html=1;rounded=0;fontSize=16;fontColor=#FFFFFF;strokeWidth=2;" edge="1" parent="1" source="z61JgNj33qLIhOlScUbN-1">
          <mxGeometry width="50" height="50" relative="1" as="geometry">
            <mxPoint x="180" y="240" as="sourcePoint" />
            <mxPoint x="750" y="190" as="targetPoint" />
          </mxGeometry>
        </mxCell>
      </root>
    </mxGraphModel>
  </diagram>
</mxfile>
